<?xml version="1.0" encoding="UTF-8"?>
<svg id="Layer_2" data-name="Layer 2" xmlns="http://www.w3.org/2000/svg" viewBox="0 0 724.62 649.53">
  <defs>
    <style>
      .cls-1, .cls-2 {
        fill: #fff;
      }

      .cls-2 {
        stroke: #fff;
        stroke-miterlimit: 10;
        stroke-width: 5px;
      }

      .cls-3 {
        fill: #2cac4d;
      }
    </style>
  </defs>
  <g id="outer_line" data-name="outer line">
    <path class="cls-1" d="m471.89,649.53c6.72,0,13.46-2.96,16.72-4.54l1.65-.67,234.36-138.14V226.03l-7.18-4.22c-.93-.49-59.85-34.6-118.39-68.24-124-70.74-125.89-70.27-133.11-68.93-10.33,2.16-109.22,60.69-109.76,61.28-6.85,4.5-8.55,13.66-4.4,20.41,4.69,6.8,13.6,8.56,20.35,4.2,6.77-4.22,77.47-45.36,97.15-55.41,26,12.79,146.22,81.7,225.56,127.87v246.34l-208.98,123.33c-.74-67.12-3.59-237.26-3.66-239.18l-.02-7.7-70.81-45.14c-6.93-4.4-15.94-2.4-20.35,4.42-4.18,6.84-2.27,15.96,4.69,20.55l57.27,36.25c.74,40.27,3.46,219.65,3.46,252.43v3.26l1.33,2.52c3.24,7.03,8.59,9.45,14.12,9.45"/>
  </g>
  <g id="fold">
    <polygon class="cls-1" points="469.74 389.7 720.94 247.3 706.18 221.47 455.04 364.04 469.74 389.7"/>
  </g>
  <g id="l1">
    <line class="cls-2" x1="601.8" y1="222.89" x2="454.7" y2="137.38"/>
  </g>
  <g id="l2">
    <line class="cls-2" x1="537.41" y1="258.66" x2="414.38" y2="181.48"/>
  </g>
  <g id="l3">
    <line class="cls-2" x1="489.81" y1="297.33" x2="412.64" y2="242.52"/>
  </g>
  <g id="r1">
    <line class="cls-2" x1="650.6" y1="299.08" x2="659.28" y2="453.75"/>
  </g>
  <g id="r2">
    <line class="cls-2" x1="591.66" y1="337.35" x2="603.83" y2="480.04"/>
  </g>
  <g id="r3">
    <line class="cls-2" x1="532.95" y1="361.82" x2="548.54" y2="514.67"/>
  </g>
  <g id="leaf_line" data-name="leaf line">
    <path class="cls-3" d="m391.04,314.99c.87,2.16.87,4.32,0,6.76-2.05,8.06-11.15,13.59-20.67,12.72-6.88-.48-170.58-17.37-236.84-156.55-3.39-7.18.84-15.89,10.03-19.68,8.88-3.69,18.98-1.01,22.27,6.25,59.73,125.6,211.05,141.1,212.61,141.23,6.62.65,11.45,4.31,12.61,9.28"/>
  </g>
  <g id="leaf">
    <path class="cls-3" d="m404.13,347.26c-.39.26-15.45,7.24-40.03,14.29-24.22,6.95-57.74,14.41-95.11,14.41-23.7,0-48.9-2.95-74.29-10.72-25.32-7.38-50.75-19.56-74.5-38.57-30.01-23.41-52.22-53.23-68.82-84.62C26.3,194.8,13.92,143.74,7.34,102.8.73,61.7.34,30.52.34,23.4v-1.6S-1.3,3.55,2.58,1.1c9.29-5.27,22.85,10.06,22.85,10.06h0s.19.16.49.63c3.19,2.75,17.7,15.56,40.51,29.67,23.11,14.07,54.24,29.18,90.67,36.5,37.16,7.92,70.83,14.94,101.04,24.34,22.52,7.25,43.06,15.63,61.71,26.82,13.83,8.42,26.83,18.48,38.18,30.49,17.02,18.13,30.39,40.66,39.86,68.86,9.87,28.02,16.26,61.63,19.23,102.35.49,8.24-5.77,15.24-13.57,15.62-8.24.98-15.26-5.41-16.04-13.55-3.42-46.09-10.9-81.19-22.32-108.11-8.63-19.94-19.08-35.59-31.97-48.28-9.69-9.46-20.35-17.63-32.46-24.46-18.39-10.41-40.2-18.51-65.32-25.47-24.68-6.98-53.13-13.13-84.62-19.55-43.7-9.16-79.61-27.66-105.09-43.8-25.38-16.1-15.42-25.38-14.57-9.38,1.64,21.47,5.36,52.4,13.57,85.66,7.42,29.12,17.82,59.93,32.94,88.61,15.21,28.7,34.69,54.98,60.81,75.49,20.63,16.24,42.62,27.02,64.77,33.49,21.99,6.79,44.66,9.14,65.75,9.14,33.68,0,64.47-6.33,87.2-12.95,10.97-3.25,20.21-6.62,26.13-9.01,3.25-1.14,5.33-2.09,7.01-2.84.94-.42,1.37-.68,1.7-.8l.69-.02h.07v-.15l3.5,7.76-3.5-7.61v-.15l3.5,7.76-3.5-7.61c7.16-3.52,15.89-.58,19.34,6.9,3.42,7.46.5,16.32-7,19.74"/>
  </g>
</svg>